# xmcd
#
# Track frame offsets:
#	150
#	16429
#	40979
#	72411
#	95267
#	118807
#	141121
#	158980
#	174078
#	193258
#	221628
#	244032
#	265437
#
# Disc length: 3835 seconds
#
# Revision: 0
# Processed by: cddbd v1.5.1PL0 Copyright (c) Steve Scherf et al.
# Submitted via: EasyCDDAExtractor 7.7.1.2
#
DISCID=be0ef90d
DTITLE=Paul Camilleri - Another Sad Goodby
DYEAR=2004
DGENRE=Blues
TTITLE0=Heart Of Stone
TTITLE1=Anoather Sad Goodby
TTITLE2=Poor Heart
TTITLE3=Mister P.C.
TTITLE4=Lady Luck
TTITLE5=Messin' With My Heart
TTITLE6=Keep Me Movin'
TTITLE7=Let My Guitar Talk
TTITLE8=It's Too Late
TTITLE9=When The Night Comes
TTITLE10=All Went Wrong
TTITLE11=I Can't Wait Until Tonight
TTITLE12=Ain't Givin' Up
EXTD=
EXTT0=
EXTT1=
EXTT2=
EXTT3=
EXTT4=
EXTT5=
EXTT6=
EXTT7=
EXTT8=
EXTT9=
EXTT10=
EXTT11=
EXTT12=
PLAYORDER=
